<svg xmlns="http://www.w3.org/2000/svg" viewBox="0 0 180 220" role="img" aria-label="デカフェコーヒー商品">
  <rect width="180" height="220" fill="none"/>
  <path d="M44 19h92l12 180c1 13-8 20-20 20H52c-12 0-21-7-20-20L44 19Z" fill="#b35f1d"/>
  <path d="M44 19h92l-6 23H50l-6-23Z" fill="#8c4718"/>
  <rect x="54" y="56" width="72" height="96" fill="#3b2417" opacity=".88"/>
  <circle cx="90" cy="79" r="14" fill="#d79a42"/>
  <path d="M91 66c7 11-5 15-1 25-8-8 5-15 1-25Z" fill="#3b2417"/>
  <rect x="67" y="112" width="46" height="7" rx="3.5" fill="#d79a42"/>
  <rect x="68" y="130" width="44" height="4" rx="2" fill="#f5d4a3" opacity=".75"/>
</svg>
